<svg xmlns="http://www.w3.org/2000/svg" width="525" height="659.24" viewBox="0 0 525 659.24">
  <defs>
    <style>
      .cls-1 {
        fill: #db4b44;
        stroke: rgba(0,0,0,0);
        stroke-miterlimit: 10;
      }
    </style>
  </defs>
  <path id="Intersection_1" data-name="Intersection 1" class="cls-1" d="M18683.449,20251.635c-4.658-3.975-9.145-7.641-13.6-11.119a289.647,289.647,0,0,0-71.826-41.666c-6.578-2.65-13.275-4.982-19.906-6.934a226.926,226.926,0,0,0-64.221-9.055,248.985,248.985,0,0,0-107.779,24.693,235.033,235.033,0,0,1,31.205-17.652,246.6,246.6,0,0,1,33.648-12.861,250.054,250.054,0,0,1,35.191-7.877,244.4,244.4,0,0,1,35.838-2.67,224.516,224.516,0,0,1,55.967,6.938c6.7,1.725,13.449,3.813,20.076,6.219a288.786,288.786,0,0,1,73.014,39.018c9.754,7.086,19.662,14.992,31.172,24.906q4.611,3.97,9.225,8.061ZM18322,20215.723c31.461-37.213,63.727-74.367,96.213-110.791,4.309-4.828,8.7-9.814,12.588-14.213,14.8-16.787,30.113-34.139,46.309-49.977a114.306,114.306,0,0,1,8.73-7.779c-13.221,14.391-25.859,29.771-38.084,44.635-4.326,5.277-8.232,10.021-12.141,14.717-38.518,46.338-76.74,93.9-113.615,141.381Zm121.918-221.557c-10.84-7.51-20.729-17.332-29.439-25.988l-.016-.016-.021-.025c-.771-.764-1.572-1.559-2.342-2.324-17.086-16.924-34-35.137-51.727-55.7-12.062-13.984-24.689-29.3-38.373-46.529v-19.426c17.893,21.285,34,39.633,49.193,56.066,18.385,19.875,35.873,37.43,53.473,53.691l1.7,1.58.705.658.02.016c8.785,8.141,18.744,17.367,29.535,24.422,12.4,8.1,23.947,12.039,35.3,12.039,1.152,0,2.256-.039,3.379-.115,18.518-1.289,34.938-19.111,46.928-32.119.256-.275.5-.541.75-.811.158-.18.322-.357.484-.531,25.971-28.154,50.262-58.723,73.762-88.289l.086-.113.436-.545c7.3-9.186,14.852-18.687,22.33-27.955,26.316-32.613,52.961-65.881,78.723-98.057l.871-1.092c7.115-8.885,14.721-18.375,22.1-27.584,2.967-3.7,5.994-7.447,8.928-11.076l.168-.209.148-.178c6.049-7.473,12.307-15.2,18.3-22.914,16.553-21.281,33.795-42.555,50.465-63.123,5.967-7.361,12.725-15.7,19.191-23.729a4.386,4.386,0,0,0,.387-.561,18.356,18.356,0,0,1,1.461,1.225c.107-.092.215-.189.367-.316l.113-.1.111-.1c-.178.219-.332.4-.5.592a16.438,16.438,0,0,1,3.721,5.273,16.087,16.087,0,0,1,1.369,6.525,15.911,15.911,0,0,1-1.445,6.668,16.4,16.4,0,0,1-3.889,5.338,3.864,3.864,0,0,1-.627.932c-6.244,7.229-12.629,14.564-18.807,21.654l-.969,1.123c-17.5,20.113-35.6,40.912-53.1,61.857-6.268,7.5-12.787,15.008-19.1,22.268l-.656.76c-2.984,3.43-6.066,6.979-9.072,10.471-7.008,8.15-14.133,16.434-21.166,24.625-27.771,32.3-56.488,65.713-85.215,98.863-7.748,8.951-15.578,18.127-23.152,27.006l-.576.668c-24.643,28.883-50.129,58.754-77.221,86.139-.373.371-.777.785-1.246,1.26-12.49,12.648-29.584,29.965-48.209,30.609-.576.016-1.123.025-1.686.025C18468.154,20007,18456.391,20002.8,18443.914,19994.166Zm12.939-253.105a77.261,77.261,0,0,1-55.625-45.465,76.27,76.27,0,0,1-6.08-29.99,77.1,77.1,0,0,1,2.354-18.936,76.442,76.442,0,0,0,13.91,50.414,77.222,77.222,0,0,0,33.6,26.676,76.62,76.62,0,0,0,29.232,5.744c.885,0,1.8-.02,2.736-.051a77.024,77.024,0,0,0,63.2-37.062,76.162,76.162,0,0,0,9.336-23.457,76.239,76.239,0,0,1-6.957,28.818,77.227,77.227,0,0,1-7.273,12.525,78.327,78.327,0,0,1-9.428,10.889,77.442,77.442,0,0,1-69.008,19.895Z" transform="translate(-18321.496 -19592.895)"/>
</svg>
